<svg xmlns="http://www.w3.org/2000/svg" viewBox="0 0 64 64">
  <defs>
    <linearGradient id="bg" x1="8" y1="6" x2="56" y2="58" gradientUnits="userSpaceOnUse">
      <stop offset="0" stop-color="#eff6ff" />
      <stop offset="1" stop-color="#dbeafe" />
    </linearGradient>
    <linearGradient id="frame" x1="12" y1="10" x2="52" y2="54" gradientUnits="userSpaceOnUse">
      <stop offset="0" stop-color="#0f172a" />
      <stop offset="1" stop-color="#1d4ed8" />
    </linearGradient>
  </defs>

  <rect x="2" y="2" width="60" height="60" rx="16" fill="url(#bg)" />
  <rect x="2" y="2" width="60" height="60" rx="16" fill="none" stroke="url(#frame)" stroke-width="2.5" />

  <path
    d="M17 21c0-2.21 1.79-4 4-4h22c2.21 0 4 1.79 4 4v22c0 2.21-1.79 4-4 4H21c-2.21 0-4-1.79-4-4V21z"
    fill="#ffffff"
    fill-opacity="0.96"
  />

  <path d="M25 21v26" stroke="#cbd5e1" stroke-width="1.8" stroke-linecap="round" />
  <path d="M39 21v26" stroke="#cbd5e1" stroke-width="1.8" stroke-linecap="round" />
  <path d="M17 29h30" stroke="#cbd5e1" stroke-width="1.8" stroke-linecap="round" />
  <path d="M17 39h30" stroke="#cbd5e1" stroke-width="1.8" stroke-linecap="round" />

  <rect x="19.5" y="23.5" width="3" height="3" rx="1.2" fill="#8b5cf6" />
  <rect x="28.5" y="23.5" width="7" height="3" rx="1.5" fill="#3b82f6" />
  <rect x="41.5" y="23.5" width="3" height="3" rx="1.2" fill="#10b981" />

  <rect x="19.5" y="33" width="7" height="3" rx="1.5" fill="#f59e0b" />
  <rect x="31" y="33" width="3" height="3" rx="1.2" fill="#ef4444" />
  <rect x="38.5" y="33" width="6" height="3" rx="1.5" fill="#14b8a6" />

  <rect x="19.5" y="42.5" width="4.5" height="3" rx="1.5" fill="#22c55e" />
  <rect x="28" y="42.5" width="8" height="3" rx="1.5" fill="#6366f1" />
  <rect x="40" y="42.5" width="4.5" height="3" rx="1.5" fill="#ec4899" />

  <circle cx="32" cy="11.5" r="3.5" fill="#1d4ed8" />
  <path d="M32 15v4.5" stroke="#1d4ed8" stroke-width="2.4" stroke-linecap="round" />
  <path d="M25 11.5h-4" stroke="#60a5fa" stroke-width="2.2" stroke-linecap="round" />
  <path d="M43 11.5h-4" stroke="#60a5fa" stroke-width="2.2" stroke-linecap="round" />
</svg>
